<svg width="55" height="58" viewBox="0 0 55 58" fill="none" xmlns="http://www.w3.org/2000/svg">
<path fill-rule="evenodd" clip-rule="evenodd" d="M23.875 0.917361C22.1826 1.09661 20.5305 1.37336 20.2323 1.52774C19.4725 1.92049 19.2827 3.13799 19.8816 3.77561C20.1706 4.08311 20.3617 4.13499 22.875 4.58699C29.5796 5.79299 35.1273 10.102 38.3014 16.5694C39.0815 18.1591 39.8486 20.3991 40.253 22.2685C40.6417 24.0656 40.744 28.2759 40.4432 30.1041C39.8354 33.8001 38.703 36.8067 36.9099 39.4862C33.5014 44.5796 28.5571 47.725 22.0971 48.9099C20.4765 49.207 16.6305 49.21 15 48.9154C13.6181 48.6656 12.1797 48.3076 11.0859 47.941C9.9255 47.5522 7.45562 46.341 6.20525 45.5475C4.948 44.7496 4.558 44.6262 3.93987 44.8302C3.13737 45.0951 2.68325 46.0662 3.002 46.8357C3.20875 47.335 5.978 49.984 7.4485 51.0892C11.9255 54.4542 16.9229 56.4465 22.5 57.0896C24.1859 57.284 27.9544 57.2834 29.5625 57.0884C40.1686 55.8024 48.9864 49.3399 52.6144 40.1939C54.8027 34.6771 55.3276 28.638 54.1216 22.8501C51.668 11.0736 41.8345 2.51486 29.0375 1.01799C27.5912 0.848736 24.9991 0.798236 23.875 0.917361ZM8.34888 3.54111C8.00463 3.63174 7.67238 4.30774 7.32425 5.62549C6.50463 8.72886 5.15688 10.142 2.34988 10.841C1.77938 10.9831 1.11463 11.1499 0.872875 11.2115C0.33425 11.3489 0 11.8616 0 12.5507C0 13.3764 0.33875 13.6156 2.07175 14.0141C2.89162 14.2027 3.90412 14.518 4.32175 14.7149C5.81362 15.4181 6.826 16.8819 7.549 19.3811C7.72612 19.993 7.95425 20.6207 8.056 20.7761C8.3325 21.1981 9.04275 21.3952 9.641 21.216C10.2324 21.0387 10.4719 20.6125 10.8569 19.052C11.6547 15.8179 12.992 14.501 16.2253 13.7656C17.3744 13.5042 17.8264 13.2096 18.008 12.6036C18.1252 12.212 18.1204 12.0445 17.9835 11.7651C17.7101 11.207 17.2778 10.9885 15.7981 10.6604C15.0339 10.4909 14.1125 10.2022 13.7505 10.0187C12.3545 9.31136 11.4211 7.99286 10.8121 5.86811C10.378 4.35336 10.2717 4.12149 9.84925 3.76599C9.49375 3.46686 8.94438 3.38449 8.34888 3.54111ZM8.5875 9.31111C8.09637 10.317 7.39162 11.0932 6.31625 11.8125L5.39175 12.4307L6.10213 12.8715C7.0305 13.4475 8.06487 14.498 8.63962 15.4486L9.10013 16.2101L9.59863 15.3019C10.1291 14.3354 11.0414 13.3837 12.031 12.7647C12.3575 12.5606 12.6241 12.3654 12.6236 12.331C12.6233 12.2966 12.2857 12.0514 11.8739 11.7859C11.0289 11.2416 10.0645 10.2402 9.43038 9.24886C9.19538 8.88161 8.98837 8.58399 8.97025 8.58774C8.95225 8.59136 8.78 8.91699 8.5875 9.31111ZM14.0391 21.9687C13.5381 22.1137 13.1515 22.597 13.064 23.1874C12.923 24.1406 12.428 25.4012 11.9285 26.0797C11.1781 27.0991 9.80913 27.9114 8.34813 28.2039C7.46113 28.3815 7 28.8495 7 29.5724C7 30.2597 7.38938 30.6164 8.42313 30.8761C10.2698 31.34 11.8099 32.4534 12.4361 33.777C12.6075 34.1394 12.8545 34.8941 12.9849 35.4542C13.2832 36.7352 13.5718 37.081 14.3425 37.081C15.3279 37.081 15.6065 36.7535 15.9265 35.2186C16.1644 34.0774 16.6259 33.2345 17.4269 32.4777C18.2681 31.683 18.9914 31.2759 20.1108 30.9671C21.5708 30.5645 21.9878 30.1587 21.8263 29.298C21.709 28.6725 21.2991 28.3666 20.216 28.0959C18.8974 27.7664 18.2189 27.4117 17.4256 26.6372C16.6337 25.8642 16.0961 24.818 15.8696 23.6092C15.6806 22.6012 15.4596 22.2286 14.916 22.0015C14.6916 21.9077 14.4921 21.8361 14.4727 21.8422C14.4534 21.8485 14.2583 21.9054 14.0391 21.9687ZM13.8386 27.7172C13.578 28.0594 13.026 28.6022 12.6121 28.9237L11.8595 29.5081L12.3974 29.9509C13.084 30.516 13.8253 31.2966 14.0949 31.7385C14.2106 31.9281 14.3413 32.0687 14.385 32.051C14.4289 32.0331 14.757 31.6657 15.1141 31.2346C15.4712 30.8035 16.0454 30.241 16.39 29.9846L17.0166 29.5185L16.6042 29.206C15.8785 28.6561 15.1618 27.9627 14.8579 27.5165C14.6954 27.2779 14.5063 27.0855 14.4375 27.089C14.3687 27.0924 14.0992 27.3751 13.8386 27.7172Z" fill="black"/>
</svg>
